HIERARCHY
ROOT SpineBase
{
  OFFSET 0.000000 0.000000 0.000000
  CHANNELS 6 Xposition Yposition Zposition Zrotation Xrotation Yrotation
  JOINT SpineMid
  {
    OFFSET 0.000000 29.608089 0.000000
    CHANNELS 3 Zrotation Xrotation Yrotation
    JOINT SpineShoulder
    {
      OFFSET 0.184933 22.000633 -0.787761
      CHANNELS 3 Zrotation Xrotation Yrotation
      JOINT Neck
      {
        OFFSET 0.104556 7.295946 -0.594141
        CHANNELS 3 Zrotation Xrotation Yrotation
        JOINT Head
        {
          OFFSET -3.511253 13.460788 -1.296735
          CHANNELS 3 Zrotation Xrotation Yrotation
          End Site
          {
            OFFSET 0 0 0
          }
        }
      }
      JOINT ShoulderLeft
      {
        OFFSET -16.343448 -4.408432 5.381458
        CHANNELS 3 Zrotation Xrotation Yrotation
        JOINT ElbowLeft
        {
          OFFSET -2.402991 -27.174231 2.769824
          CHANNELS 3 Zrotation Xrotation Yrotation
          JOINT WristLeft
          {
            OFFSET 0.277180 -21.303135 -5.456666
            CHANNELS 3 Zrotation Xrotation Yrotation
            JOINT HandLeft
            {
              OFFSET -0.721420 -2.681060 -0.329192
              CHANNELS 3 Zrotation Xrotation Yrotation
              JOINT HandTipLeft
              {
                OFFSET -0.200051 -6.436076 0.218305
                CHANNELS 3 Zrotation Xrotation Yrotation
                End Site
                {
                  OFFSET 0 0 0
                }
              }
              JOINT ThumbLeft
              {
                OFFSET -3.054161 -1.208317 -1.458572
                CHANNELS 3 Zrotation Xrotation Yrotation
                End Site
                {
                  OFFSET 0 0 0
                }
              }
            }
          }
        }
      }
      JOINT ShoulderRight
      {
        OFFSET 13.740955 -2.940955 -7.861821
        CHANNELS 3 Zrotation Xrotation Yrotation
        JOINT ElbowRight
        {
          OFFSET 5.992390 -24.927821 -0.872062
          CHANNELS 3 Zrotation Xrotation Yrotation
          JOINT WristRight
          {
            OFFSET -0.968478 -21.140166 -6.128684
            CHANNELS 3 Zrotation Xrotation Yrotation
            JOINT HandRight
            {
              OFFSET -2.646841 -6.192007 -0.036299
              CHANNELS 3 Zrotation Xrotation Yrotation
              JOINT HandTipRight
              {
                OFFSET -0.944023 -5.433882 -0.567292
                CHANNELS 3 Zrotation Xrotation Yrotation
                End Site
                {
                  OFFSET 0 0 0
                }
              }
              JOINT ThumbRight
              {
                OFFSET -2.884390 1.753373 -1.818770
                CHANNELS 3 Zrotation Xrotation Yrotation
                End Site
                {
                  OFFSET 0 0 0
                }
              }
            }
          }
        }
      }
    }
  }
  JOINT HipLeft
  {
    OFFSET -6.420037 0.663091 -0.978930
    CHANNELS 3 Zrotation Xrotation Yrotation
    JOINT KneeLeft
    {
      OFFSET 3.850937 -28.696705 5.024008
      CHANNELS 3 Zrotation Xrotation Yrotation
      JOINT AnkleLeft
      {
        OFFSET 6.263983 -32.762812 4.131017
        CHANNELS 3 Zrotation Xrotation Yrotation
        JOINT FootLeft
        {
          OFFSET -2.411360 -3.801797 -11.571984
          CHANNELS 3 Zrotation Xrotation Yrotation
          End Site
          {
            OFFSET 0 0 0
          }
        }
      }
    }
  }
  JOINT HipRight
  {
    OFFSET 6.944646 1.141406 -5.749066
    CHANNELS 3 Zrotation Xrotation Yrotation
    JOINT KneeRight
    {
      OFFSET 5.391425 -26.024032 2.899154
      CHANNELS 3 Zrotation Xrotation Yrotation
      JOINT AnkleRight
      {
        OFFSET 2.547753 -35.149225 6.401617
        CHANNELS 3 Zrotation Xrotation Yrotation
        JOINT FootRight
        {
          OFFSET -4.430007 -6.762164 -4.142087
          CHANNELS 3 Zrotation Xrotation Yrotation
          End Site
          {
            OFFSET 0 0 0
          }
        }
      }
    }
  }
}
MOTION
Frames: 9
Frame Time: 0.033333
-27.845547 68.948214 354.082874 1.565080 1.646520 29.108172 0.192939 0.084054 -29.085873 0.013361 0.158966 0.063266 12.793537 -8.367882 0.877453 0.000000 0.000000 0.000000 0.106587 27.620507 -3.139009 -8.906029 34.822088 5.257887 47.484433 4.777645 1.003486 -11.375505 -11.810818 19.932879 0.000000 0.000000 0.000000 0.000000 0.000000 0.000000 -11.221226 17.445658 6.290539 -47.971029 5.964321 5.181740 12.528761 3.289919 -20.773689 -19.510039 -25.134571 -2.836498 0.000000 0.000000 0.000000 0.000000 0.000000 0.000000 -0.269248 1.241007 -28.675483 -3.673105 -3.374916 -1.171201 11.049804 -29.049981 -17.677172 0.000000 0.000000 0.000000 -3.785765 -1.738292 -29.632534 2.236045 1.849818 0.654676 1.625486 -1.866058 -0.912899 0.000000 0.000000 0.000000
-27.857882 68.941066 354.068730 1.526229 1.668340 29.153844 0.199298 0.063918 -29.131661 0.013707 0.154606 0.062336 12.885949 -8.312863 0.900370 0.000000 0.000000 0.000000 0.226297 28.011789 -3.196217 -10.169367 34.678027 5.595746 52.746493 5.377034 3.561509 -1.657661 -8.335185 28.604663 0.000000 0.000000 0.000000 0.000000 0.000000 0.000000 -11.394982 17.565753 6.370977 -47.814751 5.954452 5.102054 11.639193 3.590069 -20.922655 -18.962991 -28.607120 -4.362396 0.000000 0.000000 0.000000 0.000000 0.000000 0.000000 -0.183081 1.190305 -28.707126 -3.799317 -3.402981 -1.200854 11.526932 -33.217240 -21.432921 0.000000 0.000000 0.000000 -3.820397 -1.795697 -29.695116 2.205363 1.862761 0.654266 1.994081 -1.564630 -1.270546 0.000000 0.000000 0.000000
-27.855133 68.947933 354.054507 1.506905 1.693433 29.172757 0.192493 0.055898 -29.151335 0.007587 0.154218 0.060722 12.999680 -8.280293 0.928036 0.000000 0.000000 0.000000 0.348012 28.585868 -3.276475 -10.702295 34.453113 5.706822 53.124609 5.257930 3.928250 0.958477 -6.001765 30.193743 0.000000 0.000000 0.000000 0.000000 0.000000 0.000000 -11.843638 17.749633 6.529312 -47.332523 5.943226 4.972680 10.959037 3.996811 -21.057408 -16.251345 -28.786118 -3.543148 0.000000 0.000000 0.000000 0.000000 0.000000 0.000000 -0.158282 1.154959 -28.721379 -3.855943 -3.436669 -1.218665 11.581005 -33.255782 -23.176987 0.000000 0.000000 0.000000 -3.857167 -1.833139 -29.725580 2.277794 1.908327 0.669266 1.953668 -1.622319 -1.251892 0.000000 0.000000 0.000000
-27.829318 68.960882 354.044477 1.512607 1.712324 29.185436 0.177061 0.056135 -29.164813 -0.001298 0.152939 0.059483 13.136708 -8.257552 0.958000 0.000000 0.000000 0.000000 1.878257 28.441013 -3.471695 -13.992578 35.535475 5.896326 57.851023 5.938891 6.383460 0.654544 -3.389588 30.151095 0.000000 0.000000 0.000000 0.000000 0.000000 0.000000 -12.502566 17.972623 6.740146 -46.614068 6.030157 4.870941 10.344227 3.908330 -21.205975 -13.604572 -30.547802 -3.392086 0.000000 0.000000 0.000000 0.000000 0.000000 0.000000 -0.182714 1.167507 -28.736127 -3.900297 -3.484795 -1.236433 11.451573 -28.523432 -22.527604 0.000000 0.000000 0.000000 -3.909229 -1.817029 -29.743555 2.335872 1.871101 0.672324 2.043974 -1.583048 -1.322150 0.000000 0.000000 0.000000
-27.782182 68.981034 354.039633 1.541167 1.727816 29.195407 0.160728 0.062601 -29.175382 -0.012448 0.151583 0.058861 13.233078 -8.264917 0.978832 0.000000 0.000000 0.000000 1.294445 28.695158 -3.423066 -12.750530 36.131648 5.949377 55.410193 4.630508 6.261754 2.829487 -0.382689 30.438569 0.000000 0.000000 0.000000 0.000000 0.000000 0.000000 -13.242281 18.214829 6.972369 -45.803508 6.169831 4.780025 10.152544 3.743785 -21.321058 -9.521513 -31.125145 -2.051386 0.000000 0.000000 0.000000 0.000000 0.000000 0.000000 -0.262738 1.222676 -28.756378 -4.253188 -3.753245 -1.358719 12.071846 -26.434064 -25.995141 0.000000 0.000000 0.000000 -3.948374 -1.762190 -29.748175 2.419480 1.851158 0.676927 1.558964 -1.730501 -0.976687 0.000000 0.000000 0.000000
-27.754236 69.002626 354.041611 1.554579 1.741589 29.225089 0.159492 0.067331 -29.205352 -0.018477 0.150552 0.058645 13.257113 -8.317578 0.982962 0.000000 0.000000 0.000000 0.986084 29.127837 -3.435992 -11.624863 36.455558 5.841565 54.591387 3.762082 6.790639 -0.845616 0.070548 27.110634 0.000000 0.000000 0.000000 0.000000 0.000000 0.000000 -13.954014 18.479607 7.210693 -44.989288 6.326800 4.670645 9.813657 2.739961 -21.437291 -9.144527 -31.139883 -2.007763 0.000000 0.000000 0.000000 0.000000 0.000000 0.000000 -0.284660 1.264259 -28.786650 -4.047329 -3.772617 -1.323521 11.766795 -27.135498 -24.172696 0.000000 0.000000 0.000000 -3.978836 -1.733357 -29.776500 2.578981 1.924625 0.701409 1.268036 -2.233912 -0.626191 0.000000 0.000000 0.000000
-27.719997 69.019590 354.062574 1.577551 1.740443 29.231371 0.170747 0.074527 -29.211121 -0.022776 0.152022 0.059422 13.201036 -8.368108 0.973160 0.000000 0.000000 0.000000 2.018354 29.012671 -3.579851 -13.011866 37.757605 5.759861 55.451759 3.383114 7.973222 -6.970144 0.048166 22.312968 0.000000 0.000000 0.000000 0.000000 0.000000 0.000000 -14.714359 18.733370 7.451982 -44.100378 6.472240 4.563208 9.651418 2.010165 -21.525516 -9.160317 -29.478696 -1.411822 0.000000 0.000000 0.000000 0.000000 0.000000 0.000000 -0.318702 1.340073 -28.795719 -3.445730 -3.649527 -1.183316 10.984039 -29.478720 -18.693921 0.000000 0.000000 0.000000 -3.993987 -1.648616 -29.771473 2.851049 2.009523 0.738286 0.409087 -3.037509 0.150492 0.000000 0.000000 0.000000
-27.668550 69.027463 354.098181 1.623464 1.729365 29.224965 0.177506 0.093852 -29.204256 -0.025527 0.157504 0.060823 13.112758 -8.470061 0.953138 0.000000 0.000000 0.000000 1.914795 29.631966 -3.660653 -10.981484 37.724019 5.173709 55.452117 3.075936 8.780396 -14.166210 -0.307430 17.109154 0.000000 0.000000 0.000000 0.000000 0.000000 0.000000 -15.317962 18.953926 7.648261 -43.416385 6.596017 4.465621 9.181333 -0.242228 -21.614375 -8.393335 -26.993578 -0.504389 0.000000 0.000000 0.000000 0.000000 0.000000 0.000000 -0.395764 1.461876 -28.798081 -3.304481 -3.706285 -1.166462 10.914823 -30.456906 -16.323601 0.000000 0.000000 0.000000 -4.030195 -1.502851 -29.748533 3.007033 2.012753 0.748127 -0.113293 -3.710149 0.774000 0.000000 0.000000 0.000000
-27.626346 69.044827 354.126296 1.659594 1.733360 29.180060 0.194008 0.095614 -29.158280 -0.022280 0.160968 0.063162 12.967669 -8.562974 0.925867 0.000000 0.000000 0.000000 2.008716 30.362680 -3.791720 -10.140344 36.522864 4.761970 57.792868 5.025011 8.937669 -14.187223 1.891921 17.298342 0.000000 0.000000 0.000000 0.000000 0.000000 0.000000 -15.566103 19.046480 7.720402 -43.186216 6.865281 4.522242 9.702218 -2.207183 -21.567922 -8.369472 -26.396480 -0.338018 0.000000 0.000000 0.000000 0.000000 0.000000 0.000000 -0.487533 1.558467 -28.764894 -3.003679 -3.699286 -1.106318 11.288792 -35.814229 -14.785097 0.000000 0.000000 0.000000 -4.090394 -1.386322 -29.694989 3.021929 2.039917 0.739556 0.099881 -4.106515 0.891056 0.000000 0.000000 0.000000
